<?xml version="1.0" encoding="UTF-8" standalone="no" ?>
<!DOCTYPE svg PUBLIC "-//W3C//DTD SVG 1.1//EN" "http://www.w3.org/Graphics/SVG/1.1/DTD/svg11.dtd">
<svg xmlns="http://www.w3.org/2000/svg" xmlns:xlink="http://www.w3.org/1999/xlink" version="1.1" width="1080" height="1080" viewBox="0 0 1080 1080" xml:space="preserve">
<desc>Created with Fabric.js 5.2.4</desc>
<defs>
</defs>
<g transform="matrix(1 0 0 1 540 540)" id="e613bac2-cc46-4e6a-85d0-478db3891499"  >
<rect style="stroke: none; stroke-width: 1; stroke-dasharray: none; stroke-linecap: butt; stroke-dashoffset: 0; stroke-linejoin: miter; stroke-miterlimit: 4; fill: rgb(255,255,255); fill-rule: nonzero; opacity: 1; visibility: hidden;" vector-effect="non-scaling-stroke"  x="-540" y="-540" rx="0" ry="0" width="1080" height="1080" />
</g>
<g transform="matrix(1 0 0 1 540 540)" id="8481e03c-2322-4c91-8bb3-b87be6f58aa4"  >
</g>
<g transform="matrix(1 0 0 1 540 540)" id="path1"  >
<path style="stroke: rgb(0,0,0); stroke-width: 0; stroke-dasharray: none; stroke-linecap: butt; stroke-dashoffset: 0; stroke-linejoin: miter; stroke-miterlimit: 4; fill: rgb(45,22,62); fill-rule: nonzero; opacity: 1;" vector-effect="non-scaling-stroke"  transform=" translate(-12, -11.8)" d="M 12.00993 0 C 5.3687489 0 0 5.408328 0 12.099169 C 0 17.447513 3.4399428 21.974776 8.2120547 23.577115 C 8.808691699999999 23.697574 9.0272375 23.316778 9.0272375 22.996458 C 9.0272375 22.715962 9.0075675 21.754509 9.0075675 20.752739000000002 C 5.666696700000001 21.474014 4.9709892 19.310436000000003 4.9709892 19.310436000000003 C 4.4340896 17.908205000000002 3.6385731999999997 17.547813 3.6385731999999997 17.547813 C 2.5451074999999994 16.806627000000002 3.7182242 16.806627000000002 3.7182242 16.806627000000002 C 4.931165099999999 16.886767000000003 5.5676271999999996 18.048575000000003 5.5676271999999996 18.048575000000003 C 6.641179899999999 19.891340000000003 8.371107499999999 19.370666000000003 9.067061299999999 19.050099000000003 C 9.166377299999999 18.268842000000003 9.4847311 17.728009000000004 9.8227517 17.427601000000003 C 7.1581673 17.147106000000004 4.354686999999999 16.105511000000003 4.354686999999999 11.458036000000003 C 4.354686999999999 10.135946000000004 4.831602599999999 9.054279000000003 5.587294299999999 8.213038100000004 C 5.4680638 7.9126305 5.0503938 6.6704358 5.7067682 5.0078662 C 5.7067682 5.0078662 6.7208296999999995 4.6873001 9.0073235 6.2498149 C 9.986252771126892 5.984969851819184 10.995806654805587 5.850241592364462 12.009928999999996 5.849107400000002 C 13.02399 5.8491074 14.057718 5.9894777 15.012288999999999 6.2498149000000005 C 17.299028 4.687300100000001 18.313088999999998 5.0078662000000005 18.313088999999998 5.0078662000000005 C 18.969462999999998 6.670435800000001 18.551547999999997 7.912630500000001 18.432318 8.2130381 C 19.207922 9.054279000000001 19.665172 10.135946 19.665172 11.458036 C 19.665172 16.105511 16.86169 17.126947 14.177192999999999 17.427601 C 14.614776999999998 17.808149 14.992375999999998 18.529179 14.992375999999998 19.671073999999997 C 14.992375999999998 21.293571999999998 14.972705999999999 22.595750999999996 14.972705999999999 22.996212999999997 C 14.972705999999999 23.316777999999996 15.191498 23.697573999999996 15.787888999999998 23.577360999999996 C 20.560004999999997 21.974529999999998 23.999947 17.447512999999997 23.999947 12.099168999999996 C 24.019615 5.408328 18.6312 0 12.00993 0 Z" stroke-linecap="round" />
</g>
<g transform="matrix(NaN NaN NaN NaN 0 0)"  >
<g style=""   >
</g>
</g>
<g transform="matrix(NaN NaN NaN NaN 0 0)"  >
<g style=""   >
</g>
</g>
</svg>